name Run_300 02_newCOP3_v24.mot
datacolumns 19
datarows 133
range 3.975 4.1125
DataType=double
version=3
OpenSimVersion=4.3-2021-08-27-4bc7ad9
endheader
time	R_ground_force_vx	R_ground_force_vy	R_ground_force_vz	R_ground_force_px	R_ground_force_py	R_ground_force_pz	L_ground_force_vx	L_ground_force_vy	L_ground_force_vz	L_ground_force_px	L_ground_force_py	L_ground_force_pz	R_ground_torque_x	R_ground_torque_y	R_ground_torque_z	L_ground_torque_x	L_ground_torque_y	L_ground_torque_z
3.975	0	0	0	0	0	0	136.600204	965.5031739999999	-17.29657	0.7426739999999999	0	-0.325102	0	0	0	-0	2.590966	-0
3.976042	0	0	0	0	0	0	138.01535	951.154358	-18.307655	0.740112	0	-0.324952	0	0	0	-0	2.673737	-0
3.977083	0	0	0	0	0	0	139.327133	936.705872	-19.318007	0.737549	0	-0.324812	0	0	0	-0	2.752606	-0
3.978125	0	0	0	0	0	0	140.535065	922.170349	-20.321112	0.734984	0	-0.324681	0	0	0	-0	2.827358	-0
3.979167	0	0	0	0	0	0	141.639313	907.560669	-21.310085	0.732419	0	-0.324557	0	0	0	-0	2.897792	-0
3.980208	0	0	0	0	0	0	142.640686	892.889893	-22.277828	0.729855	0	-0.324437	0	0	0	-0	2.963718	-0
3.98125	0	0	0	0	0	0	143.540512	878.170898	-23.217192	0.727291	0	-0.324319	0	0	0	-0	3.02496	-0
3.982292	0	0	0	0	0	0	144.340652	863.41626	-24.121153	0.724729	0	-0.324201	0	0	0	-0	3.081353	-0
3.983333	0	0	0	0	0	0	145.043427	848.638062	-24.982962	0.722168	0	-0.324081	0	0	0	-0	3.132748	-0
3.984375	0	0	0	0	0	0	145.65152	833.847595	-25.796301	0.7196090000000001	0	-0.323956	0	0	0	-0	3.179014	-0
3.985417	0	0	0	0	0	0	146.167999	819.055603	-26.555408	0.717051	0	-0.323823	0	0	0	-0	3.220031	-0
3.986458	0	0	0	0	0	0	146.596222	804.271912	-27.255203	0.714496	0	-0.323682	0	0	0	-0	3.255701	-0
3.9875	0	0	0	0	0	0	146.939682	789.505737	-27.891378	0.711941	0	-0.323531	0	0	0	-0	3.285939	-0
3.988542	0	0	0	0	0	0	147.202011	774.765442	-28.460484	0.709388	0	-0.323367	0	0	0	-0	3.31068	-0
3.989583	0	0	0	0	0	0	147.386734	760.058716	-28.959967	0.706835	0	-0.323191	0	0	0	-0	3.329877	-0
3.990625	0	0	0	0	0	0	147.497208	745.392456	-29.38822	0.704282	0	-0.323	0	0	0	-0	3.343501	-0
3.991667	0	0	0	0	0	0	147.536407	730.772827	-29.744579	0.701728	0	-0.322796	0	0	0	-0	3.35154	-0
3.992708	0	0	0	0	0	0	147.506775	716.2052	-30.029316	0.699172	0	-0.322576	0	0	0	-0	3.354001	-0
3.99375	0	0	0	0	0	0	147.410095	701.694153	-30.243595	0.696615	0	-0.322342	0	0	0	-0	3.350909	-0
3.994792	0	0	0	0	0	0	147.247284	687.243469	-30.389429	0.694055	0	-0.322094	0	0	0	-0	3.342306	-0
3.995833	0	0	0	0	0	0	147.018311	672.856079	-30.469604	0.691493	0	-0.321832	0	0	0	-0	3.32825	-0
3.996875	0	0	0	0	0	0	146.722107	658.533936	-30.487595	0.688929	0	-0.321559	0	0	0	-0	3.308816	-0
3.997917	0	0	0	0	0	0	146.356537	644.278198	-30.447456	0.686362	0	-0.321274	0	0	0	-0	3.284094	-0
3.998958	0	0	0	0	0	0	145.918411	630.089233	-30.353733	0.683792	0	-0.32098	0	0	0	-0	3.254189	-0
4	0	0	0	0	0	0	145.403549	615.966614	-30.211332	0.681222	0	-0.320679	0	0	0	-0	3.219219	-0
4.001042	0	0	0	0	0	0	144.806885	601.909363	-30.025414	0.678652	0	-0.320373	0	0	0	-0	3.179314	-0
4.002083	0	0	0	0	0	0	144.122681	587.916016	-29.801266	0.676083	0	-0.320064	0	0	0	-0	3.134615	-0
4.003125	0	0	0	0	0	0	143.344681	573.984924	-29.544193	0.673517	0	-0.319754	0	0	0	-0	3.085275	-0
4.004167	0	0	0	0	0	0	142.466431	560.114197	-29.259413	0.670956	0	-0.319447	0	0	0	-0	3.031452	-0
4.005208	0	0	0	0	0	0	141.481506	546.302246	-28.951937	0.668403	0	-0.319144	0	0	0	-0	2.973316	-0
4.00625	0	0	0	0	0	0	140.38382	532.547791	-28.626495	0.665859	0	-0.318849	0	0	0	-0	2.911041	-0
4.007292	0	0	0	0	0	0	139.167923	518.850281	-28.287439	0.663327	0	-0.318563	0	0	0	-0	2.844805	-0
4.008333	0	0	0	0	0	0	137.829239	505.209839	-27.938686	0.660809	0	-0.318289	0	0	0	-0	2.774792	-0
4.009375	0	0	0	0	0	0	136.364349	491.627777	-27.583652	0.658307	0	-0.318029	0	0	0	-0	2.701189	-0
4.010417	0	0	0	0	0	0	134.771133	478.106506	-27.225216	0.655822	0	-0.317785	0	0	0	-0	2.624182	-0
4.011458	0	0	0	0	0	0	133.049026	464.649811	-26.865688	0.653354	0	-0.317557	0	0	0	-0	2.54396	-0
4.0125	0	0	0	0	0	0	131.199005	451.26297	-26.506802	0.650906	0	-0.317348	0	0	0	-0	2.460712	-0
4.013542	0	0	0	0	0	0	129.223663	437.952728	-26.149714	0.6484760000000001	0	-0.317158	0	0	0	-0	2.374624	-0
4.014583	0	0	0	0	0	0	127.127235	424.727356	-25.795015	0.646064	0	-0.316987	0	0	0	-0	2.285881	-0
4.015625	0	0	0	0	0	0	124.915413	411.596588	-25.442762	0.643672	0	-0.316836	0	0	0	-0	2.194664	-0
4.016667	0	0	0	0	0	0	122.595291	398.571472	-25.092506	0.641296	0	-0.316703	0	0	0	-0	2.101154	-0
4.017708	0	0	0	0	0	0	120.17514	385.664337	-24.743355	0.638938	0	-0.316588	0	0	0	-0	2.005524	-0
4.01875	0	0	0	0	0	0	117.664223	372.888428	-24.394014	0.636598	0	-0.31649	0	0	0	-0	1.907946	-0
4.019792	0	0	0	0	0	0	115.072563	360.257751	-24.042858	0.634274	0	-0.316407	0	0	0	-0	1.808587	-0
4.020833	0	0	0	0	0	0	112.410698	347.786865	-23.687996	0.631968	0	-0.316336	0	0	0	-0	1.707607	-0
4.021875	0	0	0	0	0	0	109.689484	335.490448	-23.327343	0.629681	0	-0.316275	0	0	0	-0	1.605164	-0
4.022917	0	0	0	0	0	0	106.919846	323.38324	-22.958694	0.6274149999999999	0	-0.316221	0	0	0	-0	1.50141	-0
4.023958	0	0	0	0	0	0	104.112633	311.479553	-22.579796	0.625173	0	-0.31617	0	0	0	-0	1.396491	-0
4.025	0	0	0	0	0	0	101.278427	299.793091	-22.188419	0.622958	0	-0.316119	0	0	0	-0	1.290549	-0
4.026042	0	0	0	0	0	0	98.42739899999999	288.336731	-21.782429	0.620776	0	-0.316063	0	0	0	-0	1.183722	-0
4.027083	0	0	0	0	0	0	95.569237	277.122345	-21.359852	0.61863	0	-0.315998	0	0	0	-0	1.076143	-0
4.028125	0	0	0	0	0	0	92.713013	266.160492	-20.918934	0.616528	0	-0.31592	0	0	0	-0	0.96794	-0
4.029167	0	0	0	0	0	0	89.867142	255.460449	-20.458189	0.614475	0	-0.315823	0	0	0	-0	0.859237	-0
4.030208	0	0	0	0	0	0	87.039314	245.029984	-19.97646	0.612478	0	-0.315701	0	0	0	-0	0.750156	-0
4.03125	0	0	0	0	0	0	84.236481	234.875305	-19.472935	0.610544	0	-0.315551	0	0	0	-0	0.640812	-0
4.032292	0	0	0	0	0	0	81.46478999999999	225.001083	-18.947197	0.608679	0	-0.315366	0	0	0	-0	0.53132	-0
4.033333	0	0	0	0	0	0	78.72959899999999	215.410416	-18.399229	0.606888	0	-0.315141	0	0	0	-0	0.42179	-0
4.034375	0	0	0	0	0	0	76.035461	206.104874	-17.829432	0.605178	0	-0.314871	0	0	0	-0	0.312331	-0
4.035417	0	0	0	0	0	0	73.386101	197.084518	-17.238617	0.603553	0	-0.314552	0	0	0	-0	0.203047	-0
4.036458	0	0	0	0	0	0	70.784447	188.348053	-16.62801	0.602017	0	-0.314179	0	0	0	-0	0.094044	-0
4.0375	0	0	0	0	0	0	68.23262	179.892883	-15.99922	0.600573	0	-0.313749	0	0	0	0	-0.014578	0
4.038542	0	0	0	0	0	0	65.731979	171.71524	-15.354216	0.599224	0	-0.313258	0	0	0	0	-0.122719	0
4.039583	0	0	0	0	0	0	63.283138	163.810303	-14.695297	0.597974	0	-0.312704	0	0	0	0	-0.23028	0
4.040625	0	0	0	0	0	0	60.886032	156.172379	-14.025048	0.596824	0	-0.312087	0	0	0	0	-0.337164	0
4.041667	0	0	0	0	0	0	58.53997	148.795013	-13.346292	0.5957789999999999	0	-0.311405	0	0	0	0	-0.443275	0
4.042708	0	0	0	0	0	0	56.243725	141.671127	-12.662037	0.594842	0	-0.31066	0	0	0	0	-0.548517	0
4.04375	0	0	0	0	0	0	53.995617	134.793198	-11.975429	0.594017	0	-0.309854	0	0	0	0	-0.652795	0
4.044792	0	0	0	0	0	0	51.793629	128.153381	-11.289684	0.59331	0	-0.30899	0	0	0	0	-0.7560170000000001	0
4.045833	0	0	0	0	0	0	49.635532	121.743622	-10.608041	0.592728	0	-0.308072	0	0	0	0	-0.858087	0
4.046875	0	0	0	0	0	0	47.519024	115.555901	-9.9337	0.592278	0	-0.307105	0	0	0	0	-0.958913	0
4.047917	0	0	0	0	0	0	45.441845	109.58226	-9.269767999999999	0.59197	0	-0.306096	0	0	0	0	-1.058402	0
4.048958	0	0	0	0	0	0	43.401913	103.815002	-8.619210000000001	0.591813	0	-0.305051	0	0	0	0	-1.156461	0
4.05	0	0	0	0	0	0	41.397449	98.246796	-7.984804	0.591819	0	-0.303977	0	0	0	0	-1.252997	0
4.051042	0	0	0	0	0	0	39.427063	92.870773	-7.369094	0.592	0	-0.302883	0	0	0	0	-1.347916	0
4.052083	0	0	0	0	0	0	37.489841	87.680649	-6.774362	0.592371	0	-0.301778	0	0	0	0	-1.441126	0
4.053125	0	0	0	0	0	0	35.585384	82.670799	-6.202593	0.592946	0	-0.300669	0	0	0	0	-1.532531	0
4.054167	0	0	0	0	0	0	33.713825	77.83627300000001	-5.655456	0.593742	0	-0.299566	0	0	0	0	-1.622037	0
4.055208	0	0	0	0	0	0	31.875841	73.17287399999999	-5.134291	0.594776	0	-0.298477	0	0	0	0	-1.709548	0
4.05625	0	0	0	0	0	0	30.072588	68.677109	-4.640096	0.596066	0	-0.297411	0	0	0	0	-1.794968	0
4.057292	0	0	0	0	0	0	28.305679	64.34620700000001	-4.173531	0.597631	0	-0.296376	0	0	0	0	-1.878197	0
4.058333	0	0	0	0	0	0	26.577106	60.178043	-3.73492	0.599492	0	-0.295381	0	0	0	0	-1.959136	0
4.059375	0	0	0	0	0	0	24.889168	56.171074	-3.324265	0.601669	0	-0.294432	0	0	0	0	-2.037682	0
4.060417	0	0	0	0	0	0	23.244406	52.324268	-2.94126	0.604183	0	-0.293539	0	0	0	0	-2.113732	0
4.061458	0	0	0	0	0	0	21.645521	48.637016	-2.585312	0.607055	0	-0.292708	0	0	0	0	-2.187179	0
4.0625	0	0	0	0	0	0	20.095318	45.109016	-2.255568	0.610306	0	-0.291945	0	0	0	0	-2.257914	0
4.063542	0	0	0	0	0	0	18.596642	41.7402	-1.950943	0.613959	0	-0.291255	0	0	0	0	-2.325824	0
4.064583	0	0	0	0	0	0	17.152317	38.530613	-1.670152	0.618036	0	-0.290641	0	0	0	0	-2.390796	0
4.065625	0	0	0	0	0	0	15.76511	35.480335	-1.411741	0.6225619999999999	0	-0.290106	0	0	0	0	-2.452708	0
4.066667	0	0	0	0	0	0	14.437666	32.589382	-1.174121	0.627562	0	-0.289647	0	0	0	0	-2.511441	0
4.067708	0	0	0	0	0	0	13.172472	29.857622	-0.955605	0.633066	0	-0.289257	0	0	0	0	-2.566867	0
4.06875	0	0	0	0	0	0	11.971801	27.284685	-0.754443	0.639104	0	-0.288923	0	0	0	0	-2.618857	0
4.069792	0	0	0	0	0	0	10.837664	24.869896	-0.568852	0.645716	0	-0.288622	0	0	0	0	-2.667277	0
4.070833	0	0	0	0	0	0	9.771761	22.6122	-0.397055	0.652944	0	-0.288319	0	0	0	0	-2.71199	0
4.071875	0	0	0	0	0	0	8.775423	20.510099	-0.237306	0.660838	0	-0.287964	0	0	0	0	-2.752855	0
4.072917	0	0	0	0	0	0	7.849565	18.561607	-0.08792700000000001	0.669454	0	-0.287486	0	0	0	0	-2.789725	0
4.073958	0	0	0	0	0	0	6.994635	16.7642	0.052672	0.678857	0	-0.286788	0	0	0	0	-2.822454	0
4.075	0	0	0	0	0	0	6.210568	15.11479	0.185963	0.689114	0	-0.28574	0	0	0	0	-2.850888	0
4.076042	0	0	0	0	0	0	5.496752	13.60971	0.313281	0.700298	0	-0.284178	0	0	0	0	-2.874874	0
4.077083	0	0	0	0	0	0	4.851995	12.244699	0.435807	0.712475	0	-0.28189	0	0	0	0	-2.894254	0
4.078125	0	0	0	0	0	0	4.27451	11.014914	0.554547	0.725699	0	-0.278623	0	0	0	0	-2.90887	0
4.079167	0	0	0	0	0	0	0	0	0	0	0	0	0	0	0	0	0	0
4.080208	0	0	0	0	0	0	0	0	0	0	0	0	0	0	0	0	0	0
4.08125	0	0	0	0	0	0	0	0	0	0	0	0	0	0	0	0	0	0
4.082292	0	0	0	0	0	0	0	0	0	0	0	0	0	0	0	0	0	0
4.083333	0	0	0	0	0	0	0	0	0	0	0	0	0	0	0	0	0	0
4.084375	0	0	0	0	0	0	0	0	0	0	0	0	0	0	0	0	0	0
4.085417	0	0	0	0	0	0	0	0	0	0	0	0	0	0	0	0	0	0
4.086458	0	0	0	0	0	0	0	0	0	0	0	0	0	0	0	0	0	0
4.0875	0	0	0	0	0	0	0	0	0	0	0	0	0	0	0	0	0	0
4.088542	0	0	0	0	0	0	0	0	0	0	0	0	0	0	0	0	0	0
4.089583	0	0	0	0	0	0	0	0	0	0	0	0	0	0	0	0	0	0
4.090625	0	0	0	0	0	0	0	0	0	0	0	0	0	0	0	0	0	0
4.091667	0	0	0	0	0	0	0	0	0	0	0	0	0	0	0	0	0	0
4.092708	0	0	0	0	0	0	0	0	0	0	0	0	0	0	0	0	0	0
4.09375	0	0	0	0	0	0	0	0	0	0	0	0	0	0	0	0	0	0
4.094792	0	0	0	0	0	0	0	0	0	0	0	0	0	0	0	0	0	0
4.095833	0	0	0	0	0	0	0	0	0	0	0	0	0	0	0	0	0	0
4.096875	0	0	0	0	0	0	0	0	0	0	0	0	0	0	0	0	0	0
4.097917	0	0	0	0	0	0	0	0	0	0	0	0	0	0	0	0	0	0
4.098958	0	0	0	0	0	0	0	0	0	0	0	0	0	0	0	0	0	0
4.1	0	0	0	0	0	0	0	0	0	0	0	0	0	0	0	0	0	0
4.101042	0	0	0	0	0	0	0	0	0	0	0	0	0	0	0	0	0	0
4.102083	0	0	0	0	0	0	0	0	0	0	0	0	0	0	0	0	0	0
4.103125	0	0	0	0	0	0	0	0	0	0	0	0	0	0	0	0	0	0
4.104167	0	0	0	0	0	0	0	0	0	0	0	0	0	0	0	0	0	0
4.105208	0	0	0	0	0	0	0	0	0	0	0	0	0	0	0	0	0	0
4.10625	0	0	0	0	0	0	0	0	0	0	0	0	0	0	0	0	0	0
4.107292	0	0	0	0	0	0	0	0	0	0	0	0	0	0	0	0	0	0
4.108333	0	0	0	0	0	0	0	0	0	0	0	0	0	0	0	0	0	0
4.109375	0	0	0	0	0	0	0	0	0	0	0	0	0	0	0	0	0	0
4.110417	0	0	0	0	0	0	0	0	0	0	0	0	0	0	0	0	0	0
4.111458	0	0	0	0	0	0	0	0	0	0	0	0	0	0	0	0	0	0
4.1125	0	0	0	0	0	0	0	0	0	0	0	0	0	0	0	0	0	0
